<?xml version="1.0" encoding="UTF-8" standalone="no"?>
<!-- Created with Inkscape (http://www.inkscape.org/) -->

<svg
   xmlns:dc="http://purl.org/dc/elements/1.1/"
   xmlns:cc="http://creativecommons.org/ns#"
   xmlns:rdf="http://www.w3.org/1999/02/22-rdf-syntax-ns#"
   xmlns:svg="http://www.w3.org/2000/svg"
   xmlns="http://www.w3.org/2000/svg"
   xmlns:sodipodi="http://sodipodi.sourceforge.net/DTD/sodipodi-0.dtd"
   xmlns:inkscape="http://www.inkscape.org/namespaces/inkscape"
   width="800px"
   height="600px"
   id="svg5093"
   version="1.1"
   inkscape:version="0.48.3.1 r9886"
   sodipodi:docname="pir8.svg">
  <defs
     id="defs5095">
    <marker
       inkscape:stockid="Tail"
       orient="auto"
       refY="0.0"
       refX="0.0"
       id="Tail"
       style="overflow:visible">
      <g
         id="g4098"
         transform="scale(-1.2)">
        <path
           id="path4100"
           d="M -3.8048674,-3.9585227 L 0.54352094,0"
           style="fill:none;fill-rule:evenodd;stroke:#000000;stroke-width:0.8;stroke-linecap:round" />
        <path
           id="path4102"
           d="M -1.2866832,-3.9585227 L 3.0617053,0"
           style="fill:none;fill-rule:evenodd;stroke:#000000;stroke-width:0.8;stroke-linecap:round" />
        <path
           id="path4104"
           d="M 1.3053582,-3.9585227 L 5.6537466,0"
           style="fill:none;fill-rule:evenodd;stroke:#000000;stroke-width:0.8;stroke-linecap:round" />
        <path
           id="path4106"
           d="M -3.8048674,4.1775838 L 0.54352094,0.21974226"
           style="fill:none;fill-rule:evenodd;stroke:#000000;stroke-width:0.8;stroke-linecap:round" />
        <path
           id="path4108"
           d="M -1.2866832,4.1775838 L 3.0617053,0.21974226"
           style="fill:none;fill-rule:evenodd;stroke:#000000;stroke-width:0.8;stroke-linecap:round" />
        <path
           id="path4110"
           d="M 1.3053582,4.1775838 L 5.6537466,0.21974226"
           style="fill:none;fill-rule:evenodd;stroke:#000000;stroke-width:0.8;stroke-linecap:round" />
      </g>
    </marker>
    <inkscape:perspective
       sodipodi:type="inkscape:persp3d"
       inkscape:vp_x="0 : 300 : 1"
       inkscape:vp_y="0 : 1000 : 0"
       inkscape:vp_z="800 : 300 : 1"
       inkscape:persp3d-origin="400 : 200 : 1"
       id="perspective5101" />
    <inkscape:perspective
       id="perspective5055"
       inkscape:persp3d-origin="0.5 : 0.33333333 : 1"
       inkscape:vp_z="1 : 0.5 : 1"
       inkscape:vp_y="0 : 1000 : 0"
       inkscape:vp_x="0 : 0.5 : 1"
       sodipodi:type="inkscape:persp3d" />
    <inkscape:perspective
       sodipodi:type="inkscape:persp3d"
       inkscape:vp_x="0 : 0.5 : 1"
       inkscape:vp_y="0 : 1000 : 0"
       inkscape:vp_z="1 : 0.5 : 1"
       inkscape:persp3d-origin="0.5 : 0.33333333 : 1"
       id="perspective5055-8" />
    <inkscape:perspective
       id="perspective5101-7"
       inkscape:persp3d-origin="400 : 200 : 1"
       inkscape:vp_z="800 : 300 : 1"
       inkscape:vp_y="0 : 1000 : 0"
       inkscape:vp_x="0 : 300 : 1"
       sodipodi:type="inkscape:persp3d" />
  </defs>
  <sodipodi:namedview
     id="base"
     pagecolor="#ffffff"
     bordercolor="#666666"
     borderopacity="1.0"
     inkscape:pageopacity="0.0"
     inkscape:pageshadow="2"
     inkscape:zoom="0.87638014"
     inkscape:cx="403.9423"
     inkscape:cy="293.96432"
     inkscape:current-layer="g5671"
     inkscape:document-units="px"
     showgrid="true"
     inkscape:window-width="1676"
     inkscape:window-height="1011"
     inkscape:window-x="0"
     inkscape:window-y="18"
     inkscape:window-maximized="0">
    <inkscape:grid
       type="xygrid"
       id="grid3307" />
  </sodipodi:namedview>
  <metadata
     id="metadata5098">
    <rdf:RDF>
      <cc:Work
         rdf:about="">
        <dc:format>image/svg+xml</dc:format>
        <dc:type
           rdf:resource="http://purl.org/dc/dcmitype/StillImage" />
        <dc:title></dc:title>
      </cc:Work>
    </rdf:RDF>
  </metadata>
  <g
     id="layer1"
     inkscape:label="Layer 1"
     inkscape:groupmode="layer"
     style="display:inline">
    <g
       id="g3806"
       transform="matrix(1.0541179,0,0,1.0541179,205.14527,-1522.0446)" />
    <g
       style="stroke:#000000;stroke-width:0.11016758;stroke-miterlimit:4;stroke-opacity:1;stroke-dasharray:none"
       transform="matrix(0.97425635,0,-0.33611607,0.84570552,342.96733,-526.04192)"
       id="g4955" />
    <g
       id="g5671"
       transform="translate(-1.0439821,1051.5633)">
      <g
         id="g3246"
         transform="matrix(0.92882233,0,0,0.92882233,2.079625,-74.441817)">
        <path
           d="m 441.40188,-842.03495 c 13.3392,-89.81749 -76.84591,-95.86079 -66.69616,-131.61374 10.55657,-37.18611 51.57837,-26.67851 72.92114,-32.01421 21.34273,-5.3356 18.19356,-25.0511 5.33568,-35.5712 -9.78211,-8.0036 -89.76967,-12.3314 -108.49242,46.24264 -26.04413,81.47889 64.02832,74.69969 64.02828,151.17796 0,65.01496 31.12489,1.77855 32.90348,1.77855 z"
           id="path3229-2"
           style="fill:#ac9d93;fill-opacity:1;fill-rule:evenodd;stroke:#000000;stroke-width:5.65052652;stroke-linecap:butt;stroke-linejoin:miter;stroke-miterlimit:4;stroke-opacity:1;stroke-dasharray:none"
           inkscape:connector-curvature="0" />
        <path
           d="m 239.53482,-694.41415 a 174.29928,174.29928 0 0 0 348.59856,0 174.29928,174.29928 0 1 0 -348.59856,0 z"
           id="path2383-6"
           style="fill:#ac9d93;fill-opacity:1;fill-rule:nonzero;stroke:#000000;stroke-width:5.65052605;stroke-linecap:round;stroke-linejoin:round;stroke-miterlimit:4;stroke-opacity:1;stroke-dasharray:none"
           inkscape:connector-curvature="0" />
        <path
           d="m 366.23747,-1026.7334 c -4.69032,5.9138 -8.53573,12.9083 -11.16864,21.1453 -26.04411,81.4789 64.00992,74.71748 64.00988,151.19574 -10e-6,26.41234 5.17014,31.64358 11.38936,28.56165 -9.59392,13.00156 -21.9841,23.07037 -21.9841,-17.96691 4e-5,-76.47826 -90.05399,-69.71684 -64.00987,-151.19573 4.42186,-13.83365 12.23896,-24.14325 21.76337,-31.74005 z m 96.27968,9.0497 c -1.57742,5.3334 -6.20626,9.8397 -14.87678,12.0073 -15.21166,3.8029 -40.42657,-0.4248 -57.47644,10.28576 14.99604,-23.80076 49.21419,-16.16626 68.07116,-20.88046 1.57077,-0.3927 2.97076,-0.8736 4.28206,-1.4126 z"
           id="path3334-8"
           style="fill:#241f1c;fill-opacity:0.31372549;fill-rule:evenodd;stroke:none"
           inkscape:connector-curvature="0" />
        <path
           d="m 479.02725,-856.06986 c 20.28679,8.19683 38.68007,20.10142 54.34219,34.87435 -4.57982,7.79514 -10.52322,14.95784 -18.0552,20.35072 17.37204,22.74068 27.67874,51.1272 27.67874,81.93263 5e-5,74.61434 -60.55686,135.17123 -135.17115,135.17123 -74.61433,0 -135.17119,-60.55693 -135.1712,-135.17123 0,-30.51321 10.16281,-58.63929 27.23732,-81.27046 -5.25937,-3.59804 -9.73033,-8.04274 -13.55248,-12.97855 14.92518,-16.01806 32.79941,-29.25009 52.79711,-38.75908 0.42966,0.50949 0.83281,1.02557 1.23608,1.54507 3.04698,3.92534 5.01988,7.57293 6.13612,10.99203 18.41324,-9.40123 39.23658,-14.70019 61.31705,-14.70019 21.59265,10e-6 42.01395,5.06627 60.12511,14.08217 1.14855,-3.23917 3.05404,-6.6878 5.91539,-10.37401 1.53132,-1.97273 3.28167,-3.87124 5.16492,-5.69468 z"
           id="path3306-1"
           style="fill:#241f1c;fill-opacity:0.31372549;fill-rule:nonzero;stroke:none"
           inkscape:connector-curvature="0" />
        <path
           d="m 543.43446,-901.47094 c 3.62301,0.0804 6.30011,0.82974 7.63704,2.33967 4.92638,5.56396 0.83356,56.41251 -29.75356,78.31276 17.37201,22.74066 27.67875,51.1272 27.67875,81.93263 0,74.61432 -60.55687,135.17119 -135.1712,135.17119 -74.61433,0 -135.1712,-60.55689 -135.1712,-135.17119 0,-30.51323 10.16281,-58.63928 27.23732,-81.27046 -31.45167,-21.51686 -35.70168,-73.35389 -30.72478,-78.97493 7.13018,-8.05296 52.99399,5.32103 71.2055,28.78237 3.04697,3.92533 5.01993,7.57294 6.13611,10.99203 18.41329,-9.40123 39.23658,-14.70019 61.31705,-14.70019 21.59265,0 42.014,5.06627 60.12511,14.08217 1.14857,-3.23919 3.05404,-6.6878 5.91544,-10.37401 14.79687,-19.06234 47.86867,-31.47043 63.56842,-31.12204 z"
           id="path2385-7"
           style="fill:#ac9d93;fill-opacity:1;fill-rule:nonzero;stroke:none"
           inkscape:connector-curvature="0" />
        <path
           transform="matrix(-1.3313551,0,0,1.423756,597.67027,-1067.152)"
           d="m 198.65789,261.73843 c 0,28.64981 -33.51827,51.87506 -74.86514,51.87506 -41.346879,0 -74.865145,-23.22525 -74.865145,-51.87506 0,-28.6498 33.518266,-51.87505 74.865145,-51.87505 41.34687,0 74.86514,23.22525 74.86514,51.87505 z"
           sodipodi:ry="51.875057"
           sodipodi:rx="74.865143"
           sodipodi:cy="261.73843"
           sodipodi:cx="123.79275"
           id="path2897-3"
           style="fill:#e3dedb;stroke:none"
           sodipodi:type="arc" />
        <path
           inkscape:connector-curvature="0"
           id="path5206"
           d="m 433.51873,-651.89109 c 21.67849,-1.64968 42.94551,-8.79829 60.58067,-20.36336 8.62547,-5.65652 17.20939,-12.89417 22.45892,-18.93634 l 2.10759,-2.42584 -1.5134,-1.30447 c -0.83236,-0.71746 -2.23446,-1.80279 -3.11583,-2.41178 l -1.60249,-1.10729 -3.39775,3.63085 c -3.81002,4.07136 -10.71821,9.99953 -15.85777,13.60822 -15.77577,11.07673 -33.51092,17.9312 -53.83455,20.80655 -7.14598,1.01103 -26.35365,1.01547 -34.55056,0.008 -34.67676,-4.26193 -62.14189,-18.4283 -76.73887,-39.58166 -6.13559,-8.8915 -9.41231,-18.33704 -9.98687,-28.78864 l -0.25324,-4.60684 -3.97985,-0.11542 -3.97988,-0.1154 0.25505,5.01784 c 1.82729,35.94977 34.11999,65.12032 82.22937,74.27909 12.90932,2.45762 28.51929,3.3698 41.17945,2.4064 l 0,4e-5 z"
           style="fill:#040401" />
        <path
           inkscape:connector-curvature="0"
           id="path5204"
           d="m 404.98204,-733.20875 c 8.49778,-1.23424 14.77638,-5.93385 17.32689,-12.96948 0.7763,-2.14133 1.04495,-2.47014 2.42562,-2.9689 5.33347,-1.9266 7.166,-2.79937 10.49012,-4.99613 2.04303,-1.3502 3.71529,-2.57796 3.71616,-2.72836 -5e-5,-0.15039 -0.40526,-0.39929 -0.90249,-0.5531 -0.49713,-0.15381 -2.50536,-0.99555 -4.46284,-1.87054 -7.32361,-3.27373 -17.38344,-4.15594 -43.26823,-3.79443 -19.94612,0.27855 -43.99804,1.76146 -44.61112,2.75047 -0.54817,0.88444 -0.7211,6.93694 -0.21299,7.45491 0.85188,0.86843 15.48424,3.62539 29.1229,5.48718 2.28914,0.31249 4.21113,0.62344 4.27115,0.69101 0.06,0.0676 0.65666,1.20444 1.32582,2.52641 1.95975,3.87152 5.57056,7.47314 9.54655,9.5222 3.00135,1.5468 9.98461,2.21097 15.23246,1.44876 z"
           style="fill:#040401" />
        <path
           inkscape:connector-curvature="0"
           id="path5202"
           d="m 483.53668,-733.55456 c 6.53007,-1.24043 10.69009,-4.9365 12.85403,-11.42046 0.73081,-2.18966 1.04458,-2.64936 1.94319,-2.84876 4.76879,-1.05786 14.61681,-4.25337 18.6485,-6.05107 1.6441,-0.7331 2.31004,-1.25039 2.31005,-1.79435 0,-1.28504 -1.28381,-6.10684 -1.76075,-6.61322 -0.34125,-0.36229 -2.71199,-0.38939 -9.88996,-0.11304 -5.19264,0.1999 -17.48624,0.55108 -27.31908,0.78035 -16.93614,0.39492 -20.54978,0.3221 -31.13564,-0.62742 l -2.81232,-0.25225 3.41494,3.47719 c 4.42221,4.50296 7.8515,7.06093 11.92056,8.89189 l 3.28299,1.47724 0.657,2.60789 c 1.45404,5.77174 4.49266,10.02225 8.35943,11.69327 2.32979,1.00679 6.55104,1.35804 9.52706,0.79274 z"
           style="fill:#040401" />
        <path
           inkscape:connector-curvature="0"
           id="path5200"
           d="m 513.13312,-799.55576 c 1.14199,-0.0803 2.27949,-0.39002 2.52776,-0.68826 0.27741,-0.33325 0.40607,-1.82793 0.334,-3.87777 l -0.11728,-3.33551 -1.80791,-0.27052 c -0.9943,-0.14879 -4.33888,-0.57107 -7.4324,-0.93841 -8.60279,-1.02153 -14.52123,-2.10906 -22.88991,-4.20604 -8.92917,-2.23744 -13.8962,-4.01428 -17.80538,-6.36943 -3.04133,-1.83231 -3.25746,-2.15919 -4.3374,-6.5593 -0.39495,-1.60927 -0.87469,-2.70401 -1.18502,-2.70401 -0.96456,0 -6.6105,6.54055 -7.91858,9.17316 -1.6448,3.31045 -1.80258,7.27833 -0.39494,9.93271 2.75881,5.20255 8.60685,7.66595 21.18596,8.92418 7.46831,0.74704 33.68648,1.35192 39.8411,0.9192 z"
           style="fill:#040401" />
        <path
           inkscape:connector-curvature="0"
           id="path4885-8"
           d="m 335.29069,-807.34653 c 0.77338,-0.52534 2.27236,-2.21103 3.33108,-3.74597 2.49097,-3.61138 4.64238,-5.77555 8.1188,-8.16696 13.83776,-9.5188 37.85935,-14.92219 73.72128,-16.58278 l 10.24463,-0.47439 0.3207,-3.57165 c 0.24792,-2.76032 0.2007,-3.69144 -0.20799,-4.09894 -0.62857,-0.62678 -7.69135,-1.4909 -17.7195,-2.16798 -9.1036,-0.61465 -30.20261,-0.27178 -37.23219,0.60504 -19.2873,2.4058 -32.31705,6.53738 -43.01715,13.64032 -6.63944,4.40734 -13.34004,11.95982 -16.03432,18.07284 -1.10166,2.4997 -1.23756,3.09558 -0.77183,3.38565 0.31078,0.19363 2.82496,1.09805 5.58702,2.00984 3.88523,1.28257 5.8402,1.7022 8.63762,1.85396 3.32369,0.18034 3.72932,0.11903 5.02185,-0.75898 z"
           style="fill:#040401" />
        <path
           d="m 290.56399,-779.88111 c -1.70722,8.59701 -2.61684,17.47644 -2.61684,26.57658 0,75.11747 60.843,136.08278 135.80992,136.08274 56.22517,0 104.49456,-34.2707 125.12075,-83.10736 -12.44943,62.27697 -67.35083,109.28396 -133.1487,109.28396 -74.96693,-4e-5 -135.80993,-60.96528 -135.80993,-136.08275 0,-18.70701 3.80918,-36.53521 10.6448,-52.75317 z"
           id="path3293-8"
           style="fill:#000000;fill-opacity:0.31372549;fill-rule:nonzero;stroke:none"
           inkscape:connector-curvature="0" />
        <path
           d="m 480.4409,-746.2406 a 2.4826551,8.2182465 0 0 0 4.96531,0 2.4826551,8.2182465 0 1 0 -4.96531,0 z"
           id="path2393-4"
           style="fill:#f6ffd5;fill-opacity:1;fill-rule:nonzero;stroke:none"
           inkscape:connector-curvature="0" />
        <path
           d="m 418.67233,-710.57655 c 0,12.4729 13.65968,22.59585 22.69631,22.59585 9.73496,0 22.6963,-10.12295 22.6963,-22.59585 1e-5,-12.4729 -10.16795,-15.64327 -22.6963,-15.64327 -12.52842,0 -22.69632,3.17037 -22.69631,15.64327 z"
           id="path2397-6"
           style="fill:#000000;fill-opacity:1;fill-rule:nonzero;stroke:none"
           inkscape:connector-curvature="0" />
        <path
           inkscape:connector-curvature="0"
           style="fill:none;stroke:#000000;stroke-width:5.65052652;stroke-linecap:round;stroke-linejoin:miter;stroke-miterlimit:4;stroke-opacity:1;stroke-dasharray:none"
           id="path3195-2"
           d="m 518.61905,-735.61149 c 63.10726,-23.46059 93.94628,5.49949 93.94628,5.49949" />
        <path
           inkscape:connector-curvature="0"
           style="fill:none;stroke:#000000;stroke-width:5.65052652;stroke-linecap:round;stroke-linejoin:miter;stroke-miterlimit:4;stroke-opacity:1;stroke-dasharray:none"
           id="path3197-6"
           d="m 509.56742,-719.87945 c 44.68644,-12.65469 73.95335,19.61681 73.95335,19.61681" />
        <path
           inkscape:connector-curvature="0"
           style="fill:none;stroke:#000000;stroke-width:5.65052652;stroke-linecap:round;stroke-linejoin:miter;stroke-miterlimit:4;stroke-opacity:1;stroke-dasharray:none"
           id="path3199-4"
           d="m 505.8515,-703.05334 c 34.38027,-3.63902 47.54483,27.01771 47.54483,27.01771" />
        <path
           d="m 492.60806,-847.37063 c 3.55713,-27.56776 44.46414,-46.24268 49.79982,-41.79628 5.33568,4.44641 -6.59612,47.18661 -29.3463,57.80334 -13.33925,6.22496 -20.45348,-8.89282 -20.45352,-16.00706 z"
           id="path3233-7"
           style="fill:#2b2200;fill-opacity:1;fill-rule:evenodd;stroke:#000000;stroke-width:5.65052652;stroke-linecap:butt;stroke-linejoin:round;stroke-miterlimit:4;stroke-opacity:1;stroke-dasharray:none"
           inkscape:connector-curvature="0" />
        <path
           d="m 295.11495,-524.99963 c 0,30.43477 24.7007,29.34633 55.13548,29.34633 30.43483,0 55.1355,1.08844 55.1355,-29.34633 0,-30.43479 -24.70067,-55.13547 -55.1355,-55.13547 -30.43477,0 -55.13547,24.70068 -55.13548,55.13547 z"
           id="path3235-2"
           style="fill:#ac9d93;fill-opacity:1;fill-rule:nonzero;stroke:#000000;stroke-width:5.65052652;stroke-linecap:round;stroke-linejoin:round;stroke-miterlimit:4;stroke-opacity:1"
           inkscape:connector-curvature="0" />
        <path
           d="m 422.28228,-524.99963 c -1e-5,30.43477 24.70068,29.34628 55.1355,29.34628 16.92317,0 32.07346,0.33657 42.19001,-4.59708 8.07711,-3.93903 12.94549,-11.2376 12.94549,-24.7492 10e-6,-30.43479 -24.70072,-55.13547 -55.13549,-55.13547 -30.43482,0 -55.13551,24.70068 -55.13551,55.13547 z"
           id="path3238-0"
           style="fill:#e3e2db;fill-opacity:1;fill-rule:nonzero;stroke:#000000;stroke-width:5.65052652;stroke-linecap:round;stroke-linejoin:round;stroke-miterlimit:4;stroke-opacity:1"
           inkscape:connector-curvature="0" />
        <path
           d="m 321.29811,-571.91017 c -6.67164,9.15385 -10.63887,20.437 -10.63886,32.62296 -10e-6,17.61041 8.24289,33.27959 21.05703,43.4384 -21.30426,-0.8088 -36.59602,-5.21786 -36.59602,-29.13551 0,-19.82168 10.46286,-37.20825 26.17785,-46.92585 z"
           id="path3327-1"
           style="fill:#241f1c;fill-opacity:0.31372549;fill-rule:nonzero;stroke:none"
           inkscape:connector-curvature="0" />
        <path
           d="m 449.14127,-571.91017 c -6.67164,9.15385 -10.63887,20.437 -10.63887,32.62296 0,17.61041 8.24291,33.27959 21.05705,43.4384 -21.30426,-0.8088 -36.596,-5.21786 -36.59599,-29.13551 -10e-6,-19.82168 10.46283,-37.20825 26.17781,-46.92585 z"
           id="path3332-9"
           style="fill:#241f1c;fill-opacity:0.31372549;fill-rule:nonzero;stroke:none"
           inkscape:connector-curvature="0" />
        <path
           d="m 398.0217,-552.53065 c 4.6794,8.1011 7.37217,17.52456 7.37216,27.54633 0,24.72826 -16.3197,28.62396 -38.7591,29.22383 22.29104,-9.29232 33.62721,-31.37112 31.38694,-56.77016 z"
           id="path3349-9"
           style="fill:#000000;fill-opacity:0.31372549;fill-rule:nonzero;stroke:none"
           inkscape:connector-curvature="0" />
        <path
           inkscape:connector-curvature="0"
           style="fill:none;stroke:#000000;stroke-width:5.65052652;stroke-linecap:round;stroke-linejoin:miter;stroke-miterlimit:4;stroke-opacity:1;stroke-dasharray:none"
           id="path2471-6"
           d="m 456.6772,-498.68635 c -4.94788,-16.00708 0.70685,-34.682 0.70685,-34.682" />
        <path
           inkscape:connector-curvature="0"
           style="fill:none;stroke:#000000;stroke-width:5.65052652;stroke-linecap:round;stroke-linejoin:miter;stroke-miterlimit:4;stroke-opacity:1;stroke-dasharray:none"
           id="path2473-9"
           d="m 482.14049,-495.12922 c 6.06447,-25.78918 -0.86635,-46.24266 -0.86635,-46.24266" />
        <path
           inkscape:connector-curvature="0"
           style="fill:none;stroke:#000000;stroke-width:5.65052652;stroke-linecap:round;stroke-linejoin:miter;stroke-miterlimit:4;stroke-opacity:1;stroke-dasharray:none"
           id="path2475-9"
           d="m 507.92705,-497.79705 c 12.44996,-19.56422 1.77858,-35.5713 1.77858,-35.5713" />
        <path
           inkscape:connector-curvature="0"
           style="fill:none;stroke:#000000;stroke-width:5.65052652;stroke-linecap:round;stroke-linejoin:miter;stroke-miterlimit:4;stroke-opacity:1;stroke-dasharray:none"
           id="path2510-4"
           d="m 369.96323,-498.68635 c 4.94789,-16.00708 -0.70685,-34.682 -0.70685,-34.682" />
        <path
           inkscape:connector-curvature="0"
           style="fill:none;stroke:#000000;stroke-width:5.65052652;stroke-linecap:round;stroke-linejoin:miter;stroke-miterlimit:4;stroke-opacity:1;stroke-dasharray:none"
           id="path2512-1"
           d="m 344.49994,-495.12922 c -6.06447,-25.78918 0.86636,-46.24266 0.86636,-46.24266" />
        <path
           inkscape:connector-curvature="0"
           style="fill:none;stroke:#000000;stroke-width:5.65052652;stroke-linecap:round;stroke-linejoin:miter;stroke-miterlimit:4;stroke-opacity:1;stroke-dasharray:none"
           id="path2514-9"
           d="m 318.71338,-497.79705 c -12.44996,-19.56422 -1.77857,-35.5713 -1.77857,-35.5713" />
        <path
           d="m 399.26172,-746.69479 a 2.482655,8.2182459 0 0 0 4.96531,0 2.482655,8.2182459 0 1 0 -4.96531,0 z"
           id="path2393-0-4"
           style="fill:#f6ffd5;fill-opacity:1;fill-rule:nonzero;stroke:none"
           inkscape:connector-curvature="0" />
        <path
           d="m 546.09669,-901.39844 c 3.623,0.0804 6.30011,0.82974 7.63703,2.33967 4.92639,5.56396 0.83357,56.41251 -29.75356,78.31276 17.37202,22.7407 27.67875,51.12721 27.67876,81.9326 0,74.6143 -60.55687,135.1712 -135.17119,135.1712 -74.61433,0 -135.1712,-60.5569 -135.1712,-135.1712 0,-30.51319 10.16281,-58.63919 27.23732,-81.2704 -31.45168,-21.51689 -35.70168,-73.35392 -30.72477,-78.97496 7.13016,-8.05296 52.99399,5.32103 71.20549,28.78237 3.04698,3.92533 5.01992,7.57293 6.13611,10.99203 18.4133,-9.40124 39.23657,-14.70019 61.31704,-14.70019 21.59266,0 42.014,5.06627 60.12512,14.08217 1.14855,-3.23919 3.05403,-6.6878 5.91543,-10.37401 14.79687,-19.06234 47.86866,-31.47043 63.56842,-31.12204 z"
           id="path2385-7-1"
           style="fill:none;stroke:#000000;stroke-width:5.65052605;stroke-linecap:round;stroke-linejoin:round;stroke-miterlimit:4;stroke-opacity:1;stroke-dasharray:none;display:inline"
           inkscape:connector-curvature="0" />
        <path
           d="m 334.688,-847.37063 c -3.55713,-27.56776 -44.46411,-46.24268 -49.79979,-41.79628 -5.33568,4.44641 6.59611,47.18661 29.34631,57.80334 13.33926,6.22496 20.45348,-8.89282 20.45348,-16.00706 z"
           id="path3231-3"
           style="fill:#2b2200;fill-opacity:1;fill-rule:evenodd;stroke:#000000;stroke-width:5.65052652;stroke-linecap:butt;stroke-linejoin:round;stroke-miterlimit:4;stroke-opacity:1;stroke-dasharray:none"
           inkscape:connector-curvature="0" />
        <path
           inkscape:connector-curvature="0"
           id="path3374-3"
           d="m 287.04093,-707.23916 c 1.94153,-3.64185 3.16407,-7.94203 2.71678,-9.55635 -0.5023,-1.81286 0.1354,-2.82953 1.66792,-2.65898 1.36464,0.15187 3.53556,-1.46016 4.82429,-3.58227 1.28871,-2.12212 1.67813,-3.32167 0.86534,-2.66573 -1.62006,1.30755 -5.88403,-2.41178 -5.68631,-4.96012 0.068,-0.87614 1.66141,-1.42176 3.54096,-1.21259 2.06532,0.22984 4.67833,-1.70773 6.60444,-4.89727 3.02631,-5.01152 3.01757,-5.34439 -0.17297,-6.60128 -1.84803,-0.7278 -4.1268,-3.84522 -5.06395,-6.92738 -1.44166,-4.74131 -2.53824,-5.61157 -7.12424,-5.65309 -4.04531,-0.0366 -5.35385,0.7712 -5.15818,3.18392 0.20239,2.49585 -0.9515,3.0979 -5.06079,2.64059 -6.06207,-0.67465 -8.819,3.05916 -5.7325,7.76365 1.4489,2.20837 3.68524,2.94842 7.85012,2.59798 5.69085,-0.47884 5.81277,-0.34501 5.33207,5.85054 -0.48546,6.25688 -0.55864,6.30787 -5.53741,3.86448 -2.775,-1.36186 -4.99568,-3.1177 -4.93483,-3.902 0.13022,-1.67839 -6.68026,-4.61964 -8.51976,-3.67941 -2.24034,1.14496 2.4664,17.38343 5.36208,18.49949 1.5384,0.59301 1.05873,0.70036 -1.06594,0.23854 -3.98388,-0.86552 -5.66841,2.73792 -2.47393,5.29232 0.96578,0.77222 1.2125,2.57933 0.54829,4.01595 -0.66677,1.44202 0.35547,4.66217 2.28244,7.18975 4.59761,6.03058 10.08907,4.25077 14.93609,-4.84075 z"
           style="fill:#d40000;fill-opacity:1;stroke:#000000;stroke-width:1.35000002;stroke-miterlimit:4;stroke-opacity:1;stroke-dasharray:none;display:inline" />
        <g
           id="g5067"
           transform="matrix(0.96382859,0,-0.33251851,0.84570552,587.58243,-671.97734)">
          <path
             inkscape:connector-curvature="0"
             d="m -272.14681,192.40444 c -4.84996,-13.70903 -13.53613,-44.79454 -13.69431,-49.00836 -0.10619,-2.82849 -1.52102,-9.52751 -3.14412,-14.88675 -1.6231,-5.35924 -3.50031,-18.54926 -4.17158,-29.31109 -0.97371,-15.610334 -0.53337,-20.388683 2.17759,-23.630155 l 3.39813,-4.063066 2.36059,10.317249 c 1.36615,5.970991 1.66865,11.469558 0.71804,13.052599 -0.98823,1.64574 -0.77452,4.893823 0.53651,8.153903 1.19845,2.98019 1.72178,6.19137 1.16294,7.13593 -0.55882,0.94456 0.60871,7.85773 2.59453,15.3626 7.07288,26.73004 6.17737,24.61598 9.31542,21.99112 1.54161,-1.28952 2.78816,-6.29403 2.77011,-11.12113 -0.034,-9.07398 0.60749,-11.11642 2.6802,-8.53409 3.56159,4.43725 3.38729,37.89059 -0.26202,50.29321 -1.65691,5.63122 -3.51124,11.91222 -4.12076,13.95775 -0.86125,2.89047 -1.37848,2.95515 -2.32128,0.29028 z m 17.71907,111.25507 c 0.26182,-12.42483 3.61368,-27.79291 8.94904,-41.03096 5.0181,-12.45089 4.74018,-23.01031 -0.9931,-37.73405 -5.32257,-13.669 -5.84703,-25.8691 -1.11719,-25.98825 2.54434,-0.0641 3.23591,-1.48442 2.24061,-4.60154 -0.79186,-2.47984 0.0962,-10.84665 1.97345,-18.59289 4.11295,-16.97152 2.77824,-26.78208 -5.39287,-39.64001 -3.37709,-5.31414 -7.02104,-12.8578 -8.09768,-16.76371 -1.83013,-6.6395 -11.75998,-28.083705 -19.47584,-42.059407 -2.25464,-4.083823 -3.81518,-11.387286 -4.65498,-21.78546 -1.30795,-16.195498 -6.70796,-36.562093 -10.71762,-40.422567 -5.82222,-5.605548 -6.94137,-3.666511 -4.70564,8.153143 1.54575,8.172111 1.54511,11.664446 -0.002,11.180417 -1.23748,-0.387138 -2.40372,-2.276668 -2.59164,-4.198962 -0.48934,-5.005881 -3.0274,-2.155215 -2.83085,3.179526 0.0903,2.451208 -1.31251,12.685509 -3.11737,22.742903 -4.81148,26.811145 -7.35328,50.598107 -6.64131,62.151137 0.67062,10.88188 5.23778,34.73928 7.39483,38.62814 0.71864,1.29562 1.71444,4.47883 2.21288,7.07379 0.49842,2.59493 3.71823,10.75783 7.1551,18.13977 3.43689,7.38191 6.37023,14.66297 6.51855,16.1801 0.1483,1.51714 2.21306,5.02218 4.58836,7.789 2.37528,2.76684 4.4776,6.65614 4.67183,8.64291 0.19422,1.98679 1.69604,5.08923 3.33739,6.89435 3.87205,4.25839 6.31744,11.98102 4.05681,12.81147 -1.01522,0.37297 -0.93748,1.90756 0.18327,3.61697 1.07068,1.63303 3.49969,16.62201 5.3978,33.30881 2.6489,23.28726 4.28282,31.72835 7.02921,36.31388 1.96796,3.28582 3.77148,5.77745 4.00779,5.53697 0.23633,-0.2405 0.51587,-4.52696 0.62123,-9.52548 z"
             style="fill:#d40000;fill-opacity:1;stroke:#000000;stroke-width:1.49528599;stroke-miterlimit:4;stroke-opacity:1;stroke-dasharray:none;display:inline"
             id="path4109" />
          <path
             inkscape:connector-curvature="0"
             d="m -331.32033,85.286416 c -2.68952,-3.350771 -3.0819,-18.812929 -0.84937,-33.470075 2.97085,-19.504395 4.89244,-25.381118 7.70607,-23.567267 2.33013,1.502135 5.96296,21.744709 3.77982,21.061727 -1.65515,-0.517848 -5.48943,10.655284 -5.67005,16.522479 -0.0852,2.768599 -0.26384,8.887733 -0.3969,13.598049 -0.2321,8.215685 -1.43634,9.758704 -4.56957,5.855087 z m 34.21382,127.426924 c 0.81856,-2.25965 2.80107,-6.44222 4.40555,-9.2946 3.51122,-6.24205 2.28883,-17.54486 -3.75472,-34.71781 -10.56458,-30.01961 -18.31208,-71.923005 -15.24075,-82.431445 2.96831,-10.155873 4.56926,-19.585719 4.35469,-25.649571 -0.12674,-3.581558 0.2457,-7.31664 0.82761,-8.300215 2.04147,-3.450566 1.33751,-35.427744 -0.90016,-40.888867 -1.66327,-4.059284 -3.75332,-5.900157 -8.32127,-7.329194 -3.35506,-1.049565 -7.81521,-3.340481 -9.91145,-5.090884 -4.80082,-4.008785 -8.61794,-0.591635 -6.34404,5.679316 0.86291,2.379735 0.53567,7.393019 -0.72719,11.140632 -1.26288,3.747588 -1.72255,7.811556 -1.02153,9.031033 0.70102,1.219477 0.14996,2.607754 -1.22461,3.085021 -3.45494,1.199658 -6.86052,17.546903 -7.55717,36.27544 -1.13348,30.471759 8.53207,68.659774 24.0451,95.000874 4.27739,7.26301 7.69197,13.85328 7.58793,14.64505 -0.10404,0.79173 1.22555,5.61354 2.95465,10.71511 1.72911,5.10156 3.82072,14.21794 4.64802,20.25858 1.60924,11.75025 3.77494,14.50899 6.17934,7.87153 z"
             style="fill:#d40000;fill-opacity:1;stroke:#000000;stroke-width:1.49528599;stroke-miterlimit:4;stroke-opacity:1;stroke-dasharray:none;display:inline"
             id="path4105" />
          <path
             style="fill:#d4aa00;fill-opacity:1;stroke:#000000;stroke-width:1.49528599;stroke-miterlimit:4;stroke-opacity:1;stroke-dasharray:none;display:inline"
             d="m -312.62095,1.253049 c 4.19382,-1.318876 7.64085,-3.576958 7.66001,-5.017755 0.0393,-2.956927 -7.16875,-7.502798 -12.73453,-8.031205 -8.55884,-0.812584 -20.826,-6.773768 -22.33823,-10.855193 -0.86585,-2.336906 -3.05925,-4.58064 -4.87422,-4.986011 -1.92879,-0.430795 -3.26719,-3.201642 -3.2211,-6.66869 0.0434,-3.262407 0.7631,-5.780597 1.59949,-5.595979 0.83633,0.185008 1.80211,-2.276848 2.14615,-5.469918 0.89891,-8.342741 -2.96104,-7.981888 -8.04647,0.752084 -5.13079,8.811713 -5.39646,12.400858 -1.74638,23.593988 5.66249,17.363801 24.711,27.576253 41.55528,22.278679 z"
             id="path3384-9"
             inkscape:connector-curvature="0" />
          <path
             sodipodi:nodetypes="cscccccc"
             inkscape:connector-curvature="0"
             id="path2593-4-8"
             d="m -311.25807,-100.95863 c 6.08974,-4.96763 16.00129,-11.46008 22.02564,-14.42764 11.23907,-5.53633 55.20559,-18.71609 58.74327,-17.60938 50.75572,-11.13827 141.576514,12.48039 140.317866,4.20068 C -217.0976,-305.226 -382.60047,-248.9544 -348.47201,-90.514406 c 15.62349,5.25689 9.45336,-5.19517 15.37502,-3.85271 10.10182,2.28994 11.45033,1.88291 21.83892,-6.591434 z"
             style="fill:#d40000;fill-opacity:1;stroke:#000000;stroke-width:1.39283121;stroke-linejoin:round;stroke-miterlimit:4;stroke-opacity:1;stroke-dasharray:none;display:inline" />
          <path
             inkscape:transform-center-y="-13.399132"
             inkscape:transform-center-x="12.528757"
             inkscape:connector-curvature="0"
             style="fill:#d40000;fill-opacity:1;stroke:#000000;stroke-width:1.21838129;stroke-miterlimit:4;stroke-opacity:1;stroke-dasharray:none;display:inline"
             d="m -326.14151,-21.275391 c -1.51793,-9.830974 -2.38634,-10.700786 -8.72804,-8.742404 -3.21432,0.9925 -3.20347,2.906989 0.0493,8.701313 5.98881,10.667785 10.32273,10.688346 8.67872,0.04109 z"
             id="path3376-5" />
        </g>
        <g
           id="g4925"
           transform="matrix(-1.4126316,0,0,1.4126316,858.41394,-1457.5216)">
          <path
             d="m 356.30922,528.71442 c 24.33775,-2.57606 33.65692,19.1258 33.65692,19.1258"
             id="path3186-1"
             style="fill:none;stroke:#000000;stroke-width:4;stroke-linecap:round;stroke-linejoin:miter;stroke-miterlimit:4;stroke-opacity:1;stroke-dasharray:none"
             inkscape:connector-curvature="0" />
          <path
             d="m 358.93972,516.80324 c 31.63347,-8.95824 52.35147,13.88671 52.35147,13.88671"
             id="path3184-4"
             style="fill:none;stroke:#000000;stroke-width:4;stroke-linecap:round;stroke-linejoin:miter;stroke-miterlimit:4;stroke-opacity:1;stroke-dasharray:none"
             inkscape:connector-curvature="0" />
          <path
             d="m 365.34735,505.66655 c 44.67355,-16.60772 66.50445,3.89308 66.50445,3.89308"
             id="path3182-7"
             style="fill:none;stroke:#000000;stroke-width:4;stroke-linecap:round;stroke-linejoin:miter;stroke-miterlimit:4;stroke-opacity:1;stroke-dasharray:none"
             inkscape:connector-curvature="0" />
        </g>
        <path
           sodipodi:nodetypes="csssccc"
           id="path5204-7"
           d="m 446.14505,-768.53282 c 11.76877,-4.98424 92.73741,-47.1068 82.32645,-49.72161 -13.55663,-3.40487 -65.33054,39.71923 -123.496,52.13639 -35.46207,7.57044 -89.72143,-11.4095 -117.02756,-13.25612 -8.01804,-0.54223 -0.52814,4.99408 -5.33459,5.72512 70.93109,14.99112 49.22808,10.96138 56.35988,12.37583 26.03599,46.55446 90.51396,42.31176 107.17182,-7.25961 z"
           style="fill:#040401;display:inline"
           inkscape:connector-curvature="0" />
        <rect
           transform="matrix(0.98312662,-0.18292632,0.18292611,0.98312666,0,0)"
           y="-675.06787"
           x="505.54581"
           height="24.320421"
           width="40.727058"
           id="rect3615"
           style="fill:#000000;fill-opacity:1" />
        <g
           id="g5251"
           transform="matrix(0.06431926,-0.01196762,-0.01168908,0.06056534,427.66682,-724.50157)">
          <g
             transform="matrix(1.0936778,0,0.43001741,1.2464361,-941.21164,-1150.4763)"
             id="g3833">
            <g
               style="display:inline"
               id="g3774"
               transform="matrix(1.2935688,0,0,1.1959877,-16.233785,-660.78834)" />
            <path
               sodipodi:nodetypes="ccsssc"
               id="path3376-6"
               d="m 75.529486,501.46084 c -2.451291,-0.69705 5.805112,1.81716 6.678014,3.32519 1.419535,0.7541 1.138633,0.0151 1.501067,-0.78507 0.53363,-1.17811 1.668154,-0.32932 1.394974,-0.70382 -0.298831,-0.40967 -0.675841,-1.86653 -1.898332,-2.32563 -1.795709,-0.67436 -5.897818,-0.47599 -7.675723,0.48933 z"
               style="fill:#d40000;fill-opacity:1;display:inline"
               inkscape:connector-curvature="0" />
            <g
               transform="matrix(1.1756677,0,0,1.1756677,-27.263666,-119.71691)"
               id="g3237">
              <path
                 transform="matrix(0.91434607,0,-0.31544716,0.80228742,497.67871,923.01267)"
                 sodipodi:nodetypes="ssssssssssssssssssssscsscsscssssscssssssssssssssssssssssssssssssssssssssssssscsssscsssssssssssscssssscssssccssssscsscsssssscssssssssssssssssssssssssssssssssscccsssssssccssscssscsssssssssssscsssssccsccccccscccssssssssssssssssssssssssssssssssscssssssssssssssssscsssscsssssssssssssssssssssccsssscsssscccsscssssssssssscsssssssssssssssssssscssssssssssssssscsssscsscssssscscsccsscssssssssssssssssssssssscssssssscsssssscssssssssssssssssssssssssssssssssssscsscssssssssssssssssssssssccsssscsssssssssssssssssssssssss"
                 inkscape:connector-curvature="0"
                 d="m -592.92862,-426.34649 c -0.55102,-1.59717 0.22337,-1.59717 1.64052,0 0.60826,0.68553 0.58474,1.24642 -0.0523,1.24642 -0.63702,0 -1.35173,-0.56089 -1.58824,-1.24642 z m -85.72215,103.46606 c 1.56356,-1.20782 1.54794,-6.81663 -0.0538,-19.33162 -0.43871,-3.42771 -0.45719,-8.48364 -0.0411,-11.2354 1.80713,-11.95064 17.69358,-30.929 42.1616,-50.36732 11.7911,-9.36729 13.2165,-11.50061 11.91615,-17.83449 -0.60075,-2.92625 -1.38237,-8.30675 -1.73693,-11.95666 -0.35455,-3.64994 -0.90235,-6.84704 -1.21733,-7.10471 -0.31498,-0.25766 -2.87803,2.07429 -5.6957,5.1821 -2.81765,3.10782 -9.88905,8.95442 -15.71421,12.99245 -18.8667,13.0785 -40.40061,20.52723 -64.48704,22.30653 -9.87296,0.72932 -13.76373,1.58758 -17.02358,3.75516 -2.32408,1.54537 -4.06896,3.26382 -3.8775,3.81876 0.19146,0.55496 3.20191,1.9645 6.68989,3.13232 5.00747,1.67657 8.73875,1.98687 17.73423,1.47483 17.52221,-0.9974 32.56273,-6.93152 42.90225,-16.92671 4.77436,-4.61535 8.43894,-5.30741 4.57133,-0.86329 -11.26846,12.94814 -25.62853,19.38307 -47.50193,21.28622 l -9.29079,0.80837 1.72395,4.99699 c 1.38304,4.00883 2.66517,5.72986 6.48355,8.70297 l 4.75961,3.70597 7.65561,-3.31431 c 8.98164,-3.88836 9.84709,-4.49677 14.33913,-10.08029 1.87398,-2.32931 4.23151,-4.23301 5.23899,-4.23044 1.15653,0.002 0.86936,0.88438 -0.77978,2.39184 -1.43635,1.31294 -2.73567,3.01627 -2.88736,3.78515 -0.15169,0.76887 -1.73906,2.79828 -3.5275,4.50976 -3.50922,3.35819 -3.82557,5.83163 -2.21953,17.3534 1.9745,14.16515 2.03241,13.99732 -7.08701,20.54132 -2.36928,1.70018 -4.45643,3.23479 -4.6381,3.41025 -0.47449,0.45825 6.98037,5.58038 11.85316,8.14415 4.69818,2.4719 7.43176,2.73732 9.74977,0.9467 z m 59.26128,-119.98135 c -0.76879,-2.26781 -0.62447,-2.4467 0.75443,-0.93482 2.20398,2.41654 2.66033,3.73931 1.29005,3.73931 -0.60153,0 -1.52154,-1.26202 -2.04448,-2.80449 z m -85.23392,113.02505 c 0.5736,-1.07726 0.90208,-2.36683 0.72998,-2.86569 -0.17211,-0.49886 1.10421,-1.58782 2.83627,-2.41993 1.73206,-0.83211 3.66805,-2.66832 4.3022,-4.08044 1.13005,-2.51637 1.04621,-2.69784 -4.20877,-9.10915 -4.49082,-5.479 -5.5279,-7.38585 -6.38434,-11.7387 -0.92664,-4.70963 -1.46364,-5.55791 -5.72515,-9.04396 -2.88619,-2.36101 -5.15235,-5.13382 -5.86699,-7.17872 -1.99229,-5.70068 -4.12409,-8.58417 -7.41925,-10.03528 -5.51516,-2.42876 -7.29602,-1.73165 -7.0472,2.75855 0.1267,2.28632 -0.68284,5.75664 -1.79897,7.71182 -2.3948,4.19509 -2.10246,5.44224 2.26455,9.66078 1.80439,1.74304 3.75533,4.54489 4.33543,6.22634 0.58009,1.68143 3.05344,5.18245 5.49633,7.78003 3.05183,3.24509 4.85381,6.1271 5.75896,9.21061 2.20862,7.524 3.26752,9.51611 6.56707,12.35453 3.77174,3.24461 4.77515,3.36992 6.15988,0.76921 z m 396.21021,-13.73915 c -0.0503,-4.41031 -6.31602,-11.82225 -13.7604,-16.27755 -3.07967,-1.84311 -5.07665,-3.57967 -4.43772,-3.859 3.46921,-1.5167 18.76751,12.39018 21.11499,19.19452 0.7923,2.29653 1.89256,4.1755 2.44502,4.1755 1.33144,0 2.84353,-7.8669 1.98848,-10.34534 -0.36988,-1.07209 0.3503,-3.10202 1.60036,-4.51094 1.25008,-1.40892 2.28652,-4.80492 2.3032,-7.54667 0.0167,-2.74175 0.60907,-6.0719 1.3164,-7.40034 2.76284,-5.18897 1.41838,-12.7949 -3.40689,-19.27364 -1.90865,-2.56265 -2.11736,-3.69676 -1.25053,-6.79483 1.3791,-4.92896 0.56308,-6.87653 -4.91388,-11.72773 -4.11611,-3.6458 -5.21252,-4.07058 -10.50706,-4.07058 -4.56896,0 -6.64972,0.75269 -9.16263,3.31449 -6.40745,6.53218 -15.13901,7.58419 -29.81804,3.59265 -11.30888,-3.07515 -39.40564,-14.10573 -55.25877,-21.69417 -6.66032,-3.18812 -20.51475,-9.10907 -30.78763,-13.15767 -10.27287,-4.0486 -23.13102,-9.16893 -28.57367,-11.37853 -5.44265,-2.20958 -10.07555,-3.6797 -10.29532,-3.26693 -0.4538,0.85225 1.06571,5.79753 4.87558,15.86776 l 2.62234,6.93136 6.30463,1.63139 c 16.84277,4.35823 53.29694,20.69853 74.06694,33.19992 12.06369,7.26109 31.58965,22.22691 38.17974,29.26316 3.50309,3.74025 11.8152,11.42784 18.47135,17.08355 l 12.1021,10.28309 7.40912,0 c 6.96846,0 7.40693,-0.19231 7.37229,-3.23347 z m -1.27717,-16.26887 c -2.47623,-1.07508 -5.90545,-2.45562 -7.62048,-3.06788 -2.32641,-0.83052 -1.73469,-0.95911 2.33018,-0.50638 5.82999,0.64934 10.37762,2.4697 11.05182,4.42392 0.55529,1.60953 -0.43285,1.4638 -5.76152,-0.84966 z m -9.72535,-7.96215 c -4.73709,-1.44621 -9.81569,-5.5618 -15.71858,-12.73801 -6.14531,-7.47095 -13.64476,-12.03559 -28.49207,-17.34207 -9.30254,-3.32477 -10.92584,-4.20164 -8.93632,-4.82717 2.59239,-0.8151 9.85974,1.37737 25.9086,7.81629 l 9.85011,3.95192 6.20664,-2.63687 c 6.0574,-2.57345 10.84003,-2.39401 15.53701,0.58296 2.37348,1.50432 7.7366,11.1357 8.29968,14.90501 1.08992,7.29606 0.91672,8.1139 -2.07998,9.82141 -3.43265,1.95591 -5.41073,2.04317 -10.57509,0.46653 z m 10.98874,-4.40364 c 0.41178,-1.07453 -0.15469,-4.67436 -1.25883,-7.99966 -3.81137,-11.47853 -12.61387,-15.61332 -21.03012,-9.87846 -2.10188,1.43224 -3.52658,3.45923 -3.16598,4.50443 1.25956,3.65094 8.70569,11.48119 12.71236,13.36815 5.29523,2.4938 11.78795,2.49664 12.7423,0.005 z m -3.51728,-25.41947 c 1.75279,-2.92995 1.94075,-4.65246 0.75911,-6.95703 -1.20091,-2.34221 -1.10369,-3.06291 0.41296,-3.06291 1.60641,0 2.20617,0.83663 3.15539,4.40159 1.39898,5.25412 1.50918,4.98151 -3.03233,7.50134 l -3.6247,2.01112 z m -9.47133,-2.54133 c -1.62718,-0.95562 -1.48075,-1.21226 0.70031,-1.22736 1.51709,-0.009 3.55027,-0.89223 4.51898,-1.9594 1.44666,-1.59371 1.86855,-1.62946 2.36168,-0.20008 0.33021,0.95714 -0.42859,2.39118 -1.68623,3.18677 -2.74893,1.73896 -3.2457,1.75582 -5.89474,0.20007 z m -369.55991,53.58464 c -0.14834,-1.70719 -0.61454,-7.50368 -1.03601,-12.88112 l -0.76631,-9.77713 -2.94462,0.72847 c -3.85698,0.95417 -9.09422,6.95522 -8.75138,10.02767 0.14852,1.33089 1.87817,4.41583 3.84366,6.8554 1.96551,2.43959 4.21452,5.45863 4.99782,6.70899 1.99143,3.17887 4.98464,2.11043 4.65684,-1.66228 z m 182.85892,-13.17917 c 2.88045,-1.64127 4.32792,-1.72482 8.60113,-0.49651 2.82582,0.81227 6.4832,1.10826 8.12754,0.65775 4.25757,-1.16646 11.73146,-13.80828 12.1679,-20.58156 0.20027,-3.10813 1.05222,-8.27623 1.89319,-11.48467 0.84099,-3.20845 1.39735,-6.21535 1.23635,-6.68201 -1.02809,-2.97999 0.10899,-24.25259 1.44988,-27.1247 1.52169,-3.25934 1.34493,-4.34583 -2.63611,-16.20367 -2.34698,-6.99053 -4.27406,-13.27097 -4.2825,-13.9565 -0.0184,-1.49467 -6.80422,-13.25508 -8.53805,-14.79715 -0.67179,-0.59748 -1.50887,1.64611 -1.86017,4.98574 -0.3513,3.33966 -1.2415,8.00398 -1.97823,10.36517 -0.73672,2.36119 -0.9633,5.44612 -0.50349,6.8554 1.58081,4.84525 1.15637,12.50078 -0.82062,14.80083 -1.08893,1.26689 -1.70576,3.09799 -1.37072,4.06913 0.33504,0.97112 -0.19785,1.76569 -1.18421,1.76569 -0.98634,0 -2.10851,0.98157 -2.49371,2.18127 -0.84488,2.63136 0.28713,6.54377 1.89336,6.54377 0.63703,0 1.03575,0.62079 0.88606,1.37952 -0.19369,0.98176 -0.66596,0.93571 -1.63788,-0.15968 -1.66181,-1.87292 -3.44446,-0.51556 -2.58701,1.96982 0.3408,0.98785 0.12749,1.7961 -0.47403,1.7961 -0.60152,0 -0.8244,0.78054 -0.49528,1.73453 0.32913,0.95399 -0.53576,2.09446 -1.92197,2.53438 -2.05747,0.65296 -2.20851,1.30733 -0.82232,3.56283 2.40358,3.91095 2.70423,4.03524 4.15236,1.71663 0.71099,-1.13837 1.93992,-2.06976 2.73095,-2.06976 0.79105,0 -0.23594,2.08195 -2.2822,4.62654 l -3.72046,4.62654 -12.98734,0.49979 -12.98734,0.49981 -1.66107,-4.81473 c -1.09952,-3.18703 -2.0869,-4.70938 -2.92067,-4.50312 -0.69278,0.17138 -1.4531,-0.24929 -1.68961,-0.93483 -0.23651,-0.68554 -1.16825,-1.24643 -2.07053,-1.24643 -0.90228,0 -1.35025,0.84135 -0.99549,1.86965 0.35477,1.02831 -0.12836,1.86965 -1.07361,1.86965 -1.5624,0 -1.62383,-0.17806 -0.67574,-1.95868 1.20463,-2.26243 0.86731,-3.80209 -1.074,-4.90217 -0.75298,-0.42666 -1.36178,0.1011 -1.35289,1.17289 0.0181,2.1799 -2.77718,2.68395 -3.48625,0.62865 -0.25047,-0.726 0.0642,-1.02556 0.69921,-0.66572 2.04513,1.15889 3.78433,-4.98607 1.95189,-6.89645 -1.27166,-1.32575 -1.64656,-1.36064 -1.65986,-0.15449 -0.009,0.85693 -0.71442,1.55805 -1.56656,1.55805 -0.85217,0 -1.33219,0.62957 -1.06672,1.39905 0.33348,0.96662 -0.18987,0.91944 -1.69317,-0.15261 -1.19671,-0.85343 -2.48325,-2.46457 -2.85896,-3.58031 -0.59501,-1.76679 -0.46087,-1.78733 1.03881,-0.15901 1.53063,1.66192 1.76995,1.66192 2.15387,0 0.64567,-2.795 -0.0359,-3.97614 -1.99832,-3.46321 -2.32239,0.60702 -6.98471,-3.60264 -8.33962,-7.52995 -0.5945,-1.72321 -1.24239,-2.82983 -1.43976,-2.45914 -0.44692,0.83937 -8.92007,-5.37886 -9.45935,-6.94199 -0.21681,-0.62845 -2.92028,-3.99729 -6.00772,-7.48633 -3.08743,-3.48906 -6.75947,-8.06992 -8.16011,-10.17973 -2.735,-4.11981 -14.39665,-13.52847 -15.10923,-12.19016 -0.75219,1.4127 3.40455,12.08771 7.46051,19.15947 2.42861,4.23439 4.67061,9.67299 5.90553,14.32542 1.88026,7.08371 2.4846,8.11954 10.8966,18.67643 4.89827,6.14723 9.2079,12.01812 9.57694,13.04643 1.75085,4.8783 8.68892,12.51484 13.27884,14.61548 3.48523,1.59506 6.19978,4.00377 10.19683,9.04797 5.84984,7.3824 18.07109,17.81378 23.22052,19.81976 4.66085,1.81565 8.53142,1.63344 12.42461,-0.58487 z m -27.02601,-39.02231 c -1.13972,-0.65888 -1.53408,-1.36879 -1.024,-1.84342 0.45625,-0.42452 1.40092,0.0663 2.09922,1.09063 1.46725,2.15233 1.41227,2.19082 -1.07522,0.75279 z m 35.20558,-11.874 c -0.50072,-1.31394 -0.49628,-2.05012 0.01,-1.63595 0.50632,0.41419 0.91605,1.48923 0.91053,2.38901 -0.006,0.99432 -0.36713,0.69898 -0.92056,-0.75306 z m -26.86301,7.9787 c -0.7754,-2.24753 -3.9676,-4.15631 -4.68804,-2.8032 -0.53384,1.00258 1.21695,5.94201 2.46929,6.96645 1.52609,1.24838 3.07992,-1.66715 2.21877,-4.16325 z m 5.69004,0.64249 c -1.06486,-3.08658 -1.99492,-4.36253 -3.17989,-4.36253 -2.30375,0 -2.07529,3.01684 0.46455,6.13478 3.18457,3.90941 4.40148,3.11515 2.71534,-1.77225 z m 5.34196,0.21548 c -0.56932,-2.36108 -1.30236,-3.33157 -2.51649,-3.33157 -1.18468,0 -1.30414,1.18555 -0.38727,3.84317 1.64524,4.76883 4.07382,4.34094 2.90376,-0.5116 z m 5.34398,-0.94256 c -1.64524,-4.76884 -4.07381,-4.34095 -2.90376,0.51159 0.56932,2.36109 1.30236,3.33158 2.51649,3.33158 1.18468,0 1.30414,-1.18555 0.38727,-3.84317 z m 5.5296,0.17742 c -1.39564,-4.04535 -3.83866,-6.05772 -4.91044,-4.04481 -0.94649,1.77763 2.55875,7.71056 4.55544,7.71056 1.0633,0 1.18524,-1.25922 0.355,-3.66575 z m 2.72727,-21.27085 c 0.31664,-2.0523 0.13963,-3.73143 -0.39338,-3.73143 -0.53301,0 -0.8945,1.1218 -0.80332,2.49286 0.0912,1.37108 -0.29319,2.49288 -0.85418,2.49288 -0.56099,0 -0.82647,0.56089 -0.58996,1.24644 0.82317,2.38601 2.06884,1.20642 2.64084,-2.50075 z m -46.27113,1.25431 c -0.60827,-0.68553 -1.84417,-1.24644 -2.74646,-1.24644 -0.90229,0 -1.14285,0.56091 -0.53457,1.24644 0.60828,0.68555 1.84418,1.24644 2.74645,1.24644 0.90229,0 1.14286,-0.56089 0.53458,-1.24644 z m -2.95425,-5.14409 c -0.67077,-0.75598 -1.45038,-0.67909 -2.08017,0.20513 -0.55402,0.77784 -1.6036,1.07638 -2.33239,0.66341 -1.60849,-0.91147 -2.22729,1.32917 -0.80862,2.92804 0.57623,0.64944 2.15885,0.33725 3.65514,-0.72103 1.45139,-1.02653 2.15611,-2.41052 1.56604,-3.07555 z m 12.39957,-2.309 c 0.15158,-0.76833 1.25361,-0.6528 2.97284,0.31161 2.30701,1.29413 2.84698,1.15616 3.47117,-0.88698 0.90981,-2.97797 -0.84226,-8.36217 -3.43597,-10.55888 -1.57507,-1.33399 -1.43203,-1.48223 0.77517,-0.80346 1.48865,0.4578 3.43567,0.26919 4.3267,-0.41913 2.42713,-1.87491 6.6741,-0.32506 7.71874,2.81681 0.79967,2.4051 0.70576,2.45074 -0.98317,0.47784 -2.1435,-2.5039 -6.41233,-2.88968 -7.58592,-0.68554 -1.17852,2.21343 1.55875,9.30693 3.94071,10.21206 3.88313,1.4756 6.39216,0.76184 6.10353,-1.73629 -0.34082,-2.94984 1.35051,-3.3442 2.3178,-0.54043 0.48114,1.3946 1.49405,1.83976 3.54515,1.55805 2.47855,-0.34042 2.66465,-0.90617 1.35993,-4.13371 -1.36204,-3.3693 -1.32937,-3.4401 0.33011,-0.71563 2.50664,4.11531 4.86497,4.66122 4.88856,1.13162 0.0158,-2.36809 0.18112,-2.47756 0.88914,-0.58889 0.74913,1.99849 1.3958,2.19854 4.66617,1.44365 2.08805,-0.48198 3.91113,-1.45761 4.05129,-2.16806 0.14017,-0.71044 0.93499,-0.90631 1.76629,-0.43526 0.86208,0.4885 1.22338,0.0215 0.84103,-1.08674 -0.36872,-1.06876 -0.007,-1.80299 0.80419,-1.63161 1.94132,0.41024 -0.11442,-5.54846 -2.15009,-6.23218 -0.93952,-0.31556 -1.15913,0.62186 -0.55963,2.389 0.5746,1.69259 0.4473,2.31867 -0.30357,1.49769 -0.70961,-0.77588 -2.49399,-1.33362 -3.96533,-1.23949 -2.1755,0.13922 -2.42559,0.75188 -1.33903,3.28033 1.31802,3.06706 1.30882,3.07117 -0.67991,0.30465 -2.3193,-3.22638 -5.70896,-3.79415 -4.66985,-0.78221 0.54116,1.5686 0.25293,1.70511 -1.28482,0.60848 -1.09039,-0.77759 -2.87642,-1.31829 -3.96899,-1.20157 -3.78216,0.40408 -5.58893,-0.19103 -6.2311,-2.0524 -0.39361,-1.1409 0.37481,-1.86965 1.97144,-1.86965 1.46581,0 2.50831,0.54815 2.37054,1.24643 -0.13525,0.68554 0.55042,1.24644 1.5237,1.24644 0.97329,0 1.25198,-0.58339 0.61934,-1.29639 -0.73226,-0.82527 -0.12608,-1.02975 1.66798,-0.56266 1.55003,0.40354 4.35584,-0.14241 6.23514,-1.21322 2.61396,-1.48943 3.55274,-1.57687 3.99497,-0.37216 0.38912,1.05992 0.79045,0.92774 1.22762,-0.40428 0.35726,-1.08847 1.31464,-1.75347 2.12752,-1.47776 1.01194,0.34323 0.81612,-1.39088 -0.62099,-5.49956 -1.15442,-3.30046 -2.10943,-7.46717 -2.12221,-9.25936 -0.0283,-3.96427 4.52156,-10.59126 8.03771,-11.70715 3.57884,-1.13576 4.58086,-2.94377 3.44928,-6.22376 -0.96428,-2.79504 -4.54555,-6.18369 -5.21211,-4.93179 -0.19199,0.36054 -0.58941,-0.70037 -0.88319,-2.35758 -0.65949,-3.72037 -3.18834,-5.32302 -4.92704,-3.12251 -1.16874,1.47913 -1.19595,1.38636 -0.27142,-0.92567 0.5651,-1.41325 0.57032,-3.89459 0.0116,-5.51411 -0.95838,-2.77791 -0.8874,-2.81428 1.25528,-0.64256 1.49692,1.51725 2.99064,2.06299 4.38169,1.60091 1.1608,-0.3856 2.01019,-0.19251 1.88755,0.4291 -0.12264,0.62161 -1.45336,1.13019 -2.95716,1.13019 -1.70119,0 -2.27701,0.51526 -1.52411,1.36381 0.66555,0.7501 2.38116,1.08796 3.81246,0.75078 l 2.60236,-0.61303 -1.81043,2.21256 -1.81044,2.21256 2.76784,1.39471 c 1.52232,0.7671 3.5359,1.02119 4.47465,0.56463 1.64929,-0.80215 1.66991,-0.74319 0.61113,1.75037 -0.82052,1.9338 -0.67839,2.81652 0.56715,3.52232 2.31723,1.31308 6.87657,-9.85367 6.39883,-15.67203 -0.51275,-6.24477 -1.33164,-8.32207 -4.91847,-12.47678 -2.62675,-3.04263 -3.19069,-4.45479 -4.05888,-10.1638 -1.68256,-11.06414 -6.67554,-27.19806 -12.08099,-39.03756 -2.81692,-6.16986 -6.86717,-15.02306 -9.00057,-19.67376 -4.22953,-9.22017 -8.11306,-14.15109 -12.39152,-15.73351 -9.40909,-3.48004 -52.18044,9.09517 -57.36203,16.865 -0.62282,0.93393 -2.0307,5.95855 -3.1286,11.16583 -2.25506,10.69549 -1.32276,16.35067 4.28447,25.98914 3.84453,6.60845 7.10473,9.03463 5.69573,4.23863 l -0.85444,-2.90835 1.44152,2.80448 c 0.79283,1.54247 1.79209,2.80448 2.22057,2.80448 0.42849,0 1.38766,1.54247 2.13151,3.4277 1.31475,3.33221 1.29227,3.34957 -0.80727,0.62322 -3.53507,-4.59049 -5.33341,-3.46233 -3.40251,2.13452 3.39518,9.84118 2.13143,26.04286 -2.46291,31.57512 -4.40949,5.30968 -6.52188,6.17707 -14.77767,6.06803 -5.72374,-0.0757 -8.10219,0.38362 -8.28902,1.6004 -0.2211,1.44005 -0.86905,1.43136 -4.15096,-0.0557 -3.79872,-1.72126 -3.81566,-1.74742 -0.72937,-1.12729 5.19725,1.04429 4.09084,-1.63781 -3.28602,-7.96583 -7.86809,-6.74944 -11.12945,-10.62998 -16.08736,-19.14165 -1.89676,-3.25633 -4.05788,-5.92057 -4.80251,-5.92057 -1.65163,0 -1.60675,22.29548 0.0546,27.11089 1.38917,4.02661 10.95762,14.71021 16.01039,17.87631 4.76818,2.98777 11.53031,4.40718 10.35047,2.17262 -0.48348,-0.9157 -1.98921,-2.02967 -3.34606,-2.47549 -2.30012,-0.75576 -2.30343,-0.81898 -0.0491,-0.93483 1.83413,-0.0942 2.15835,-0.8766 1.34287,-3.24033 -0.59127,-1.71385 -0.50086,-3.1161 0.20091,-3.1161 0.70177,0 1.07946,0.36908 0.83927,0.82014 -0.24016,0.4511 0.47108,1.68055 1.58057,2.73215 1.35543,1.28471 1.50087,1.62649 0.44334,1.04175 -2.00741,-1.10994 -1.89262,1.04205 0.30278,5.67584 1.7598,3.7144 2.07558,3.92812 7.71905,5.22449 1.78458,0.40993 5.57403,2.47801 8.42101,4.59574 4.8983,3.64363 5.32268,4.27468 7.9015,11.74958 1.49885,4.34453 3.34692,8.25147 4.1068,8.68205 0.75989,0.4306 1.27332,1.33186 1.14095,2.0028 -0.13237,0.67095 1.5342,2.67181 3.7035,4.44637 2.1693,1.77456 3.79734,2.80086 3.61788,2.28067 -0.17947,-0.5202 0.68049,-0.22782 1.91101,0.6497 2.77175,1.97664 3.4961,0.62516 2.52871,-4.71796 -0.77179,-4.26275 -1.86008,-5.08945 -3.28165,-2.49288 -0.68402,1.2494 -0.91115,1.18767 -1.1465,-0.31161 -0.20804,-1.3253 -1.05986,-1.78355 -2.92565,-1.57392 -2.27705,0.25584 -2.43225,0.11979 -1.15022,-1.00815 1.48306,-1.30485 11.21355,-0.3924 12.61098,1.18255 0.3932,0.44315 3.92136,0.77777 7.84037,0.7436 4.8036,-0.0419 6.96512,0.35949 6.63341,1.23174 -0.27063,0.7116 -0.12741,2.97653 0.31825,5.03314 l 0.8103,3.73932 -1.57491,-4.09003 c -1.67897,-4.36025 -4.98933,-6.5863 -6.2562,-4.20697 -0.5351,1.00499 -1.26012,1.0085 -2.65624,0.0129 -1.40674,-1.0032 -2.21576,-0.95446 -3.02542,0.18228 -0.90517,1.27083 -1.23147,1.18566 -1.80288,-0.4706 -0.82562,-2.39314 -2.13678,-2.60597 -3.24395,-0.52655 -0.9737,1.82872 1.17561,8.47577 2.74062,8.47577 0.62091,0 1.13863,-1.26202 1.15049,-2.80449 0.021,-2.73485 0.0515,-2.72269 1.22744,0.48987 0.99809,2.72673 3.44144,4.80749 5.64522,4.80749 0.25156,0 -0.0177,-1.54247 -0.59829,-3.4277 -0.78971,-2.56421 -0.70999,-2.79971 0.31658,-0.93483 2.4006,4.36095 8.36427,7.28922 8.93664,4.38806 z m -13.92955,-33.31108 c -3.81083,-0.77853 -7.51589,-5.1144 -9.64577,-11.28803 -2.47211,-7.16558 -2.13701,-36.43711 0.41742,-36.46178 0.96914,-0.009 2.72393,-0.34565 3.89948,-0.7473 1.83654,-0.62748 2.54858,-0.0228 5.05901,4.29604 1.6069,2.76448 7.20862,10.37658 12.44827,16.91578 7.69239,9.6003 9.67575,12.67619 10.30114,15.97557 0.88491,4.66858 -2.19951,10.9415 -5.37996,10.9415 -2.17509,0 -7.41119,-5.59996 -8.683,-9.28638 -0.3665,-1.06234 -1.15853,-1.93154 -1.76006,-1.93154 -0.60151,0 -0.51314,1.68269 0.19638,3.7393 1.33742,3.87659 -0.28578,8.8535 -2.79024,8.55532 -0.78414,-0.0934 -2.61232,-0.41218 -4.06267,-0.70848 z m 30.0156,-31.05607 c -10.28864,-2.516 -17.26709,-7.25353 -19.28031,-13.08898 -0.28876,-0.83699 -1.47035,-2.40731 -2.62573,-3.4896 -1.1554,-1.08229 -4.32153,-5.89407 -7.03587,-10.69285 -2.71434,-4.79878 -5.87269,-9.3569 -7.01855,-10.12914 -1.59749,-1.07662 -2.09208,-2.16675 -2.12064,-4.67413 -0.0471,-4.13646 0.63987,-4.21425 1.3596,-0.15396 0.62016,3.49853 3.3453,4.3563 4.47493,1.40853 0.35989,-0.93915 3.14857,-3.25656 6.19707,-5.14979 4.90317,-3.04505 6.47124,-3.3645 13.59004,-2.76863 18.92561,1.58416 28.33965,9.60673 31.78285,27.08511 2.86816,14.55937 -0.27167,21.01194 -10.59386,21.77124 -3.48735,0.25651 -7.41563,0.20351 -8.72952,-0.11777 z m -40.12311,-35.68487 c -0.55383,-1.45676 -1.71473,-2.18127 -3.49483,-2.18127 -2.46346,0 -2.73968,-0.3542 -3.64513,-4.67413 -1.26194,-6.0208 -0.9189,-6.77067 0.80777,-1.76579 0.74895,2.17088 1.85388,3.94705 2.4554,3.94705 0.60153,0 0.90017,-0.5609 0.66366,-1.24644 -0.23651,-0.68554 0.005,-1.24643 0.53611,-1.24643 1.43396,0 3.49424,4.04628 3.50073,6.8753 0.005,2.10758 -0.11685,2.15068 -0.82371,0.29171 z m -46.04209,72.52002 c 1.25791,-1.41776 2.03075,-3.32088 1.71739,-4.22917 -0.6431,-1.86407 -4.32032,-3.70945 -6.49656,-3.26024 -3.34655,0.69078 -9.20984,-1.33392 -10.67692,-3.68693 -0.84,-1.34727 -2.15032,-2.44958 -2.91181,-2.44958 -0.80925,0 -1.92056,-1.5537 -2.67459,-3.7393 -0.70953,-2.05663 -1.00334,-3.74042 -0.65292,-3.74179 0.35047,-10e-4 0.16021,-1.68405 -0.42269,-3.73932 -1.52296,-5.36988 -2.87049,-4.60129 -2.80908,1.6022 0.062,6.25881 0.76193,8.55203 4.60141,15.07478 5.9563,10.11892 15.27343,13.86368 20.32577,8.16935 z m 6.37505,-9.13976 c -1.46804,-5.09595 -1.96356,-5.87467 -3.58339,-5.63158 -1.03388,0.15517 -2.91268,-0.15384 -4.1751,-0.68665 -3.346,-1.41222 -3.50448,0.10902 -0.41826,4.01522 8.52442,10.78918 10.80664,11.43198 8.17675,2.30301 z m 121.49964,-3.26383 c 0.7048,-6.31184 0.53027,-7.61957 -1.09949,-8.23887 -2.20174,-0.83668 -6.07914,2.51083 -6.0566,5.22891 0.0197,2.37522 4.18804,10.51269 5.38504,10.51269 0.5133,0 1.31027,-3.37622 1.77105,-7.50273 z m 17.66314,-33.03163 c 18.70771,-15.52416 32.51603,-24.13439 53.63718,-33.44565 5.43349,-2.39536 11.69623,-5.50748 13.9172,-6.91583 2.73882,-1.73672 6.48675,-2.60328 11.64816,-2.69319 9.09026,-0.15833 19.31892,-1.5784 19.95347,-2.77018 0.25081,-0.47102 -1.26616,-2.03559 -3.37104,-3.47681 -5.84788,-4.00406 -9.7434,-9.43355 -11.29663,-15.74498 -0.73808,-2.99913 -0.86429,-6.51668 -0.28045,-7.81673 1.44132,-3.2095 -0.4812,-5.01615 -5.32231,-5.00153 -4.96272,0.015 -11.36364,4.06058 -19.1578,12.10836 -6.70663,6.92483 -16.88363,13.67745 -22.15961,14.70326 -3.36731,0.6547 -3.34081,0.56898 0.54017,-1.74728 8.61689,-5.14275 18.38376,-12.58033 23.81854,-18.13809 3.11254,-3.18298 6.65618,-6.10705 7.87475,-6.49795 2.83352,-0.90895 2.21806,-2.6929 -1.40704,-4.0784 -3.21527,-1.22885 -8.37927,-5.54154 -11.86734,-9.91094 -2.30672,-2.88955 -2.38024,-2.79944 -3.36284,4.12171 -1.97217,13.89174 -8.97711,22.18594 -27.46011,32.51419 -12.91547,7.21712 -48.75272,33.65869 -50.1582,37.0079 -1.15839,2.7604 -0.007,7.27399 2.34723,9.19965 1.98195,1.62131 3.5962,5.82814 5.38305,14.02855 l 1.45279,6.66731 2.95898,-2.17607 c 1.62746,-1.19682 7.16778,-5.66862 12.31185,-9.9373 z m -190.92582,-18.58269 c 1.47203,-2.35061 3.87744,-4.655 5.34536,-5.12087 1.46793,-0.46585 2.52561,-1.26258 2.35037,-1.7705 -0.39484,-1.14449 -23.41214,-10.68957 -40.41935,-16.76159 -12.17931,-4.34833 -34.89679,-13.58753 -48.20976,-19.60692 -3.48395,-1.57525 -12.55612,-7.49076 -20.16042,-13.14558 -10.20453,-7.58845 -15.47359,-10.80196 -20.11624,-12.26856 -3.45965,-1.09288 -7.10009,-2.31212 -8.08987,-2.7094 -1.22545,-0.49188 -0.58747,0.64376 1.99976,3.55965 7.86079,8.85934 10.87728,19.44379 7.78323,27.31024 -0.81345,2.06814 -1.10502,4.06621 -0.64793,4.44012 0.45708,0.37391 4.0523,0.98819 7.98935,1.36506 3.93706,0.37686 9.23438,1.67652 11.77182,2.88811 2.53744,1.21158 7.19721,2.59259 10.35502,3.06889 8.87728,1.33897 29.55807,6.86808 31.29667,8.36732 1.09403,0.94342 0.81335,1.07221 -0.94421,0.43325 -4.83279,-1.75694 -25.83443,-6.93627 -28.12586,-6.93627 -1.27441,0 -6.30724,-1.32835 -11.18406,-2.95187 -7.99488,-2.66155 -21.10823,-5.14797 -20.68533,-3.92215 0.0924,0.26794 2.26835,4.308 4.83538,8.97794 2.56701,4.66994 5.14983,10.59415 5.7396,13.16493 1.25841,5.48532 3.31964,6.24115 5.34276,1.95911 1.19158,-2.52206 2.23946,-2.7044 14.74246,-2.56541 16.07363,0.17871 18.38632,0.76231 54.8188,13.8335 25.23196,11.34593 26.51634,10.539 34.21245,-1.609 z m -110.41208,-7.16526 c 0.44262,-3.55256 -5.40234,-17.53349 -10.22917,-24.46779 -3.92048,-5.63224 -20.78128,-19.37952 -25.24969,-20.58708 -5.35533,-1.44724 -6.55701,9.1048 -2.40681,21.13444 4.83904,14.02629 20.20759,26.218 33.45074,26.53608 3.13255,0.0753 4.17634,-0.54038 4.43493,-2.61565 z m 148.97624,-5.35484 c 6.10651,-2.04671 17.90758,-10.44297 21.65266,-15.40556 2.75499,-3.65059 7.48165,-22.36809 5.96238,-23.61091 -1.16227,-0.95078 -19.33985,12.12644 -25.4645,18.31955 -5.26435,5.32319 -15.51422,20.00257 -15.00249,21.48585 0.55449,1.60723 6.85713,1.22032 12.85195,-0.78893 z m 255.66458,-26.89546 c 1.50157,-3.2313 1.37522,-4.7253 -0.97144,-11.48505 -3.26386,-9.40188 -4.90979,-11.49846 -8.0189,-10.21472 -4.24063,1.75091 -8.39225,6.77727 -8.81593,10.67346 -0.51266,4.71424 1.69207,8.93137 6.89413,13.18684 4.77703,3.90778 8.42811,3.18488 10.91214,-2.16053 z m -415.29059,-3.24112 c 0.85112,-1.8179 1.36787,-5.49298 1.14832,-8.16686 -0.34952,-4.25668 -0.92819,-5.54748 -4.65075,-10.37386 -6.72764,-8.72256 -14.7635,-9.20038 -16.14343,-0.9599 -0.55178,3.29508 -0.19747,4.77707 2.06192,8.62433 2.5434,4.33088 13.04073,14.18156 15.11252,14.18156 0.50816,0 1.6203,-1.48737 2.47142,-3.30527 z m 399.81025,-21.59891 c 8.19661,-3.0196 8.22124,-12.61135 0.0548,-21.34124 -9.26523,-9.90447 -25.77885,-9.33698 -30.64337,1.05308 -2.28685,4.88446 0.15728,10.59963 6.37299,14.90216 8.82162,6.10635 17.20114,7.97011 24.21562,5.386 z"
                 style="fill:#ffffff;fill-opacity:1;display:inline"
                 id="path2589-9" />
              <path
                 inkscape:connector-curvature="0"
                 sodipodi:nodetypes="cssssssssssssssssssssssssssssccssscccsssssssssccsssssssssssssssssccsssssccssssssssssssssssssscccccssssssc"
                 d="m 97.35562,692.96022 c 0.7716,-6.1521 3.30844,-14.22752 6.77306,-21.56039 3.2586,-6.89685 3.65282,-12.0483 1.40875,-18.40868 -2.08331,-5.90475 -1.73412,-11.82531 0.74384,-12.61178 1.33297,-0.42307 1.76695,-1.22815 1.40604,-2.60831 -0.28714,-1.09799 0.60442,-5.35031 1.98123,-9.44959 3.01651,-8.98127 2.82018,-13.60172 -0.79325,-18.66916 -1.49341,-2.09435 -3.01239,-5.24435 -3.37551,-7 -0.61724,-2.98436 -4.71115,-12.00477 -8.02955,-17.69209 -0.96966,-1.66189 -1.4121,-5.01434 -1.31976,-10 0.14384,-7.76534 -1.63777,-16.95275 -3.536035,-18.23469 -2.75638,-1.86143 -3.44032,-0.73539 -2.87575,4.73469 0.39033,3.78201 0.21158,5.5 -0.57226,5.5 -0.62694,0 -1.1399,-0.75 -1.1399,-1.66667 0,-2.3871 -1.47205,-0.59428 -1.64187,1.99965 -0.07803,1.19186 -1.33401,6.44202 -2.79106,11.66702 -3.88426,13.92891 -6.42786,26.02094 -6.646,31.59435 -0.20546,5.24964 0.96256,16.28234 1.89118,17.86335 0.30938,0.52673 0.66717,1.93932 0.79509,3.13908 0.12791,1.19976 1.39359,4.71963 2.81261,7.82194 1.41903,3.1023 2.58005,6.23247 2.58005,6.95593 0,0.72346 0.9,2.12986 2,3.12535 1.1,0.99549 2,2.58513 2,3.53254 0,0.94742 0.62637,2.24241 1.39194,2.87777 1.80602,1.49887 2.68948,4.92134 1.46562,5.67772 -0.54962,0.33969 -0.58739,1.0826 -0.08901,1.751 0.47612,0.63853 0.97979,7.63786 1.11927,15.55406 0.19464,11.04744 0.61731,14.94821 1.818335,16.78121 0.86062,1.31346 1.67586,2.26157 1.81165,2.10691 0.13579,-0.15467 0.50087,-2.30621 0.81129,-4.78121 z m -3.57637,-52 c -1.834275,-5.99717 -4.785665,-19.95155 -4.653055,-22 0.08901,-1.375 -0.30816,-4.45255 -0.88261,-6.83901 -0.57446,-2.38645 -0.88166,-8.58578 -0.68267,-13.77627 0.28863,-7.52893 0.76287,-9.94717 2.34525,-11.95884 l 1.98347,-2.52156 0.70658,4.71182 c 0.40892,2.72692 0.2861,5.38513 -0.29157,6.31012 -0.60054,0.96162 -0.65479,2.52647 -0.13619,3.92837 0.47407,1.28154 0.58352,2.78059 0.24321,3.33122 -0.34031,0.55063 -0.08332,3.77157 0.57108,7.15765 2.330775,12.06018 1.970775,11.15807 3.744855,9.38399 0.87155,-0.87155 1.77868,-3.52511 2.01585,-5.8968 0.44583,-4.45829 0.8854,-5.56169 1.8367,-4.61039 1.63463,1.63462 -0.16553,18.11724 -2.70632,24.7797 -1.15361,3.025 -2.44359,6.4 -2.86663,7.5 -0.59777,1.55436 -0.87138,1.66577 -1.22795,0.5 z m -17.715535,18.75 c 0.54323,-1.2375 1.79299,-3.6 2.77723,-5.25 2.1539,-3.61081 2.0925,-8.98259 -0.18859,-16.5 -3.98752,-13.141 -5.89569,-32.56118 -3.75372,-38.20295 2.07011,-5.45248 3.38854,-10.33742 3.58619,-13.28723 0.11674,-1.74227 0.5022,-3.63689 0.85656,-4.21026 1.24318,-2.0115 2.50893,-17.63284 1.6185,-19.97484 -0.66186,-1.74082 -1.6601,-2.32472 -3.97435,-2.32472 -1.69977,0 -3.91366,-0.44054 -4.91975,-0.97899 -2.30416,-1.23315 -4.4736,1.03516 -3.60561,3.76994 0.32939,1.03781 -0.09775,3.55421 -0.94919,5.59201 -0.85145,2.03779 -1.2993,4.10761 -0.99524,4.5996 0.30406,0.49198 -0.05485,1.25968 -0.7976,1.70598 -1.86688,1.12178 -4.48182,9.68712 -5.8027,19.00695 -2.14911,15.16358 0.95126,32.46099 7.71282,43.03102 1.86436,2.91446 3.31217,5.63078 3.21735,6.03626 -0.09482,0.40547 0.3537,2.57273 0.99672,4.81612 0.64302,2.24339 1.27038,6.40589 1.39413,9.25 0.24071,5.53234 1.23159,6.5561 2.82725,2.92111 z m -11.37052,-57.41667 c -1.23439,-1.23438 -0.64952,-8.77988 1.26603,-16.33333 2.54904,-10.05145 3.85351,-13.23793 5.23128,-12.77867 1.14101,0.38033 2.00541,9.77867 0.89937,9.77867 -0.83854,0 -3.41319,6.08611 -3.80733,9 -0.18598,1.375 -0.59194,4.4125 -0.90212,6.75 -0.54102,4.07704 -1.2492,5.02137 -2.68723,3.58333 z m 28.5854,-112.14499 c 3.436355,-3.38072 8.947925,-8.09963 12.247925,-10.48645 6.15649,-4.45287 29.8072,-17.70189 31.59949,-17.70189 2.64098,0 6.92073,-3.35455 9.20666,-7.21635 5.10189,-8.61901 13.54144,-17.53848 24.19385,-25.56965 3.3,-2.48796 6.45,-5.04431 7,-5.68076 0.55,-0.63645 1.9,-1.49894 3,-1.91663 1.89153,-0.71826 1.90414,-0.83004 0.23263,-2.06098 -0.98005,-0.72172 -1.50918,-1.97436 -1.18778,-2.81191 0.43288,-1.12807 -0.38538,-1.67676 -3.23263,-2.16767 -5.58962,-0.96375 -26.90087,-3.22856 -32.05204,-2.69906 -11.78295,1.21118 -14.00245,1.82109 -18.80868,3.5328 -3.31002,1.17884 -9.82424,2.9977 -13.79065,5.54755 -4.46893,2.87291 -8.66085,5.38996 -8.66085,5.81445 0,0.42449 -2.32163,1.4943 -4.796627,4.19009 -2.475,2.69578 -7.185099,7.02567 -10.002471,11.30959 -2.657074,4.04018 -4.144942,6.9206 -7.435686,13.42459 -2.305183,4.55607 -3.763841,10.64548 -4.189851,13.12688 -1.354223,7.88801 -2.37232,20.36362 -0.65869,28.05089 0.04583,0.20561 2.55926,0.16851 5.5854,-0.0824 5.16233,-0.4281 5.88787,-0.83583 11.75,-6.60305 z m 71.146145,-39.64231 c 17.48894,-5.97977 33.74667,-7.91154 43.04134,-5.11426 l 4.75742,1.43177 -0.69027,-3.67948 c -0.37965,-2.02371 -1.12889,-3.95056 -1.66498,-4.28188 -0.53608,-0.33132 -1.09863,-1.44682 -1.25011,-2.4789 -0.15148,-1.03208 -1.13406,-2.11203 -2.18352,-2.39989 -1.04945,-0.28787 -3.16137,-1.63076 -4.69316,-2.98421 -7.12635,-6.29669 -13.92312,-5.12446 -28.35835,4.89094 -10.12267,7.02327 -22.17611,18.06988 -19.71684,18.06988 0.36118,0 5.20249,-1.55429 10.75847,-3.45397 z"
                 style="fill:#d40000;fill-opacity:1;display:inline"
                 id="path2593-4"
                 transform="translate(-4.1233488e-7,-2.5730608e-5)" />
              <path
                 inkscape:connector-curvature="0"
                 id="path3374"
                 d="m 73.177421,528.55284 c 0.950226,-2.1073 1.459362,-4.5305 1.13143,-5.3851 -0.36827,-0.9597 -0.04819,-1.5538 0.837192,-1.5538 0.788394,0 1.960218,-1.0125 2.604073,-2.25 0.643847,-1.2375 0.813591,-1.9164 0.377188,-1.5087 -0.869836,0.8127 -3.477457,-0.9597 -3.477457,-2.3637 0,-0.4827 0.888439,-0.8776 1.974314,-0.8776 1.193196,0 2.603779,-1.2172 3.565274,-3.0765 1.510704,-2.9214 1.490906,-3.1027 -0.392441,-3.5953 -1.090865,-0.2852 -2.53465,-1.8495 -3.208408,-3.4761 -1.036469,-2.5022 -1.703244,-2.9109 -4.331878,-2.6548 -2.318715,0.2259 -3.032326,0.7467 -2.813024,2.0527 0.226843,1.351 -0.407327,1.75 -2.781388,1.75 -3.502236,0 -4.915427,2.2071 -2.938456,4.5892 0.928046,1.1182 2.241874,1.3865 4.611875,0.9419 3.238347,-0.6075 3.314126,-0.5418 3.314126,2.8716 0,3.4472 -0.03965,3.4795 -2.999997,2.4475 -1.649995,-0.5752 -2.999996,-1.3993 -2.999996,-1.8314 0,-0.9247 -4.031646,-2.1173 -5.043496,-1.4919 -1.232348,0.7616 2.185248,9.3454 3.893444,9.779 0.907527,0.2304 0.637548,0.3182 -0.599951,0.1951 -2.320367,-0.2306 -3.125097,1.8401 -1.181832,3.0412 0.587505,0.3631 0.809131,1.3352 0.492525,2.1603 -0.317829,0.8282 0.410799,2.525 1.626868,3.7885 2.90144,3.01459 5.967757,1.70859 8.340015,-3.5521 z"
                 style="fill:#d40000;fill-opacity:1;display:inline"
                 transform="translate(-4.1233488e-7,-2.5730608e-5)" />
              <path
                 id="path3376"
                 d="m 80.07583,540.84596 c -0.368031,-4.86376 -0.784248,-5.18112 -4.183202,-3.1898 -1.722771,1.00925 -1.799912,2.00024 -0.350611,4.50403 2.668358,4.60964 4.932423,3.95337 4.533813,-1.31423 z"
                 style="fill:#d40000;fill-opacity:1;display:inline"
                 inkscape:connector-curvature="0"
                 transform="translate(-4.1233488e-7,-2.5730608e-5)" />
              <path
                 transform="matrix(1.2935688,0,3.749351e-8,1.1959878,-16.233723,-660.78835)"
                 style="fill:#d40000;fill-opacity:1;display:inline"
                 d="m 78.323168,1007.2438 c 0,-1.0327 -0.595455,-2.3718 -1.323249,-2.9758 -1.059198,-0.879 -1.236095,-0.5044 -0.886494,1.8776 0.477897,3.2561 2.209743,4.1168 2.209743,1.0982 z"
                 id="path3378"
                 inkscape:connector-curvature="0" />
              <path
                 transform="matrix(1.2935688,0,3.749351e-8,1.1959878,-16.233723,-660.78835)"
                 style="fill:#d40000;fill-opacity:1;display:inline"
                 d="m 73.113083,997.91038 c 0,-0.43405 -0.805471,-0.78917 -1.78991,-0.78917 -0.984457,0 -1.78991,0.85289 -1.78991,1.89551 0,1.04248 0.805453,1.39778 1.78991,0.78935 0.984439,-0.60857 1.78991,-1.46146 1.78991,-1.89569 z"
                 id="path3370"
                 inkscape:connector-curvature="0" />
              <path
                 inkscape:connector-curvature="0"
                 id="path3384"
                 d="m 85.142628,555.85093 c 1.597393,-1.1374 2.904372,-2.6643 2.904372,-3.393 0,-1.4955 -2.780126,-2.976 -4.911671,-2.6156 -3.277811,0.5542 -8.000196,-1.0702 -8.59936,-2.958 -0.343064,-1.0809 -1.193425,-1.9653 -1.889694,-1.9653 -0.739936,0 -1.26595,-1.2465 -1.26595,-3 0,-1.65 0.262504,-3.0009 0.583341,-3.002 0.320828,-9e-4 0.677714,-1.3511 0.793071,-3 0.301408,-4.30819 -1.173152,-3.69149 -3.073878,1.2855 -1.917679,5.0213 -2.001047,6.8611 -0.548013,12.0943 2.254131,8.1182 9.591935,11.1226 16.007782,6.5541 z"
                 style="fill:#d4aa00;fill-opacity:1;display:inline"
                 transform="translate(-4.1233488e-7,-2.5730608e-5)" />
            </g>
          </g>
        </g>
      </g>
    </g>
  </g>
</svg>
